<svg xmlns="http://www.w3.org/2000/svg" width="16" height="16" viewBox="0 0 16 16">
    <g fill="none" fill-rule="evenodd">
        <path d="M0 0H20V20H0z" transform="translate(-2 -2)"/>
        <g fill="#006BD4">
            <path fill-rule="nonzero" d="M13.65 0c.863 0 1.572.663 1.644 1.508l.006.142v12c0 .863-.663 1.572-1.508 1.644l-.142.006h-12c-.863 0-1.572-.663-1.644-1.508L0 13.65v-3c0-.359.291-.65.65-.65.326 0 .597.24.643.554l.007.096v3c0 .17.12.31.28.343l.07.007h12c.17 0 .31-.12.343-.28l.007-.07v-12c0-.17-.12-.31-.28-.343l-.07-.007h-12c-.17 0-.31.12-.343.28l-.007.07v3c0 .359-.291.65-.65.65-.326 0-.597-.24-.643-.554L0 4.65v-3C0 .787.663.078 1.508.006L1.65 0h12z" transform="translate(-2 -2) translate(2 2)"/>
            <path d="M6.65 11.65L6.65 3.65 10.65 7.65z" transform="translate(-2 -2) translate(2 2)"/>
            <path fill-rule="nonzero" d="M7.65 7c.359 0 .65.291.65.65 0 .326-.24.597-.554.643L7.65 8.3h-7C.291 8.3 0 8.009 0 7.65c0-.326.24-.597.554-.643L.65 7h7z" transform="translate(-2 -2) translate(2 2)"/>
        </g>
    </g>
</svg>
