<svg xmlns="http://www.w3.org/2000/svg" width="16" height="16" viewBox="0 0 16 16">
    <g fill="none" fill-rule="evenodd">
        <path d="M0 0H20V20H0z" transform="translate(-2 -2)"/>
        <g fill="#023D98" fill-rule="nonzero">
            <path d="M5 0c.92 0 1.667.746 1.667 1.667V5c0 .92-.747 1.667-1.667 1.667H1.667C.747 6.667 0 5.92 0 5V1.667C0 .747.746 0 1.667 0H5zm0 1.25H1.667c-.205 0-.375.147-.41.342l-.007.075V5c0 .205.147.375.342.41l.075.007H5c.205 0 .375-.148.41-.342L5.417 5V1.667c0-.205-.148-.375-.342-.41L5 1.25zM5 8.333c.92 0 1.667.747 1.667 1.667v3.333C6.667 14.253 5.92 15 5 15H1.667C.747 15 0 14.254 0 13.333V10c0-.92.746-1.667 1.667-1.667H5zm0 1.25H1.667c-.205 0-.375.148-.41.342L1.25 10v3.333c0 .205.147.375.342.41l.075.007H5c.205 0 .375-.147.41-.342l.007-.075V10c0-.205-.148-.375-.342-.41L5 9.583zM13.333 0C14.253 0 15 .746 15 1.667V5c0 .92-.746 1.667-1.667 1.667H10c-.92 0-1.667-.747-1.667-1.667V1.667C8.333.747 9.08 0 10 0h3.333zm0 1.25H10c-.205 0-.375.147-.41.342l-.007.075V5c0 .205.148.375.342.41l.075.007h3.333c.205 0 .375-.148.41-.342L13.75 5V1.667c0-.205-.147-.375-.342-.41l-.075-.007zM11.667 8.333c.316 0 .578.235.619.54l.006.085v5.417c0 .345-.28.625-.625.625-.317 0-.578-.235-.62-.54l-.005-.085V8.958c0-.345.28-.625.625-.625z" transform="translate(-2 -2) translate(2.5 2.5)"/>
            <path d="M14.375 11.042c.345 0 .625.28.625.625 0 .316-.235.578-.54.62l-.085.005H8.958c-.345 0-.625-.28-.625-.625 0-.317.235-.578.54-.62l.085-.005h5.417z" transform="translate(-2 -2) translate(2.5 2.5)"/>
        </g>
    </g>
</svg>
