<svg xmlns="http://www.w3.org/2000/svg" width="16" height="16" viewBox="0 0 16 16">
    <g fill="none">
        <g fill="#023D98">
            <path d="M16.25 3.75v2.5H3.75v-2.5h12.5m0-1.25H3.75c-.69 0-1.25.56-1.25 1.25v2.5c0 .69.56 1.25 1.25 1.25h12.5c.69 0 1.25-.56 1.25-1.25v-2.5c0-.69-.56-1.25-1.25-1.25zM6.25 10v6.25h-2.5V10h2.5m0-1.25h-2.5c-.69 0-1.25.56-1.25 1.25v6.25c0 .69.56 1.25 1.25 1.25h2.5c.69 0 1.25-.56 1.25-1.25V10c0-.69-.56-1.25-1.25-1.25zM16.25 10v6.25H10V10h6.25m0-1.25H10c-.69 0-1.25.56-1.25 1.25v6.25c0 .69.56 1.25 1.25 1.25h6.25c.69 0 1.25-.56 1.25-1.25V10c0-.69-.56-1.25-1.25-1.25z" transform="translate(-2 -2)"/>
        </g>
        <path d="M0 0H20V20H0z" transform="translate(-2 -2)"/>
    </g>
</svg>
