<svg xmlns="http://www.w3.org/2000/svg" width="16" height="16" viewBox="0 0 16 16">
    <g fill="none" fill-rule="evenodd">
        <path d="M0 0H20V20H0z" transform="translate(-2 -2)"/>
        <path fill="#023D98" fill-rule="nonzero" d="M12.5 14.375H7.413c-.062-.22-.153-.43-.27-.625l6.607-6.606c.376.23.809.354 1.25.356 1.3.004 2.387-.989 2.499-2.284.112-1.296-.787-2.46-2.07-2.68-1.28-.22-2.516.58-2.841 1.839H7.413C7.098 3.156 5.926 2.361 4.677 2.52 3.428 2.679 2.492 3.74 2.492 5s.936 2.321 2.185 2.48c1.249.159 2.42-.636 2.736-1.855h5.175c.061.22.152.43.268.625L6.25 12.856c-.376-.23-.809-.354-1.25-.356-1.3-.004-2.387.989-2.499 2.284-.112 1.296.787 2.46 2.07 2.68 1.28.22 2.516-.58 2.842-1.839H12.5v.875c0 .552.448 1 1 1h3c.552 0 1-.448 1-1v-3c0-.552-.448-1-1-1h-3c-.552 0-1 .448-1 1v.875zM5 6.25c-.69 0-1.25-.56-1.25-1.25S4.31 3.75 5 3.75 6.25 4.31 6.25 5c0 .332-.132.65-.366.884-.235.234-.552.366-.884.366zm10-2.5c.69 0 1.25.56 1.25 1.25S15.69 6.25 15 6.25 13.75 5.69 13.75 5s.56-1.25 1.25-1.25zM5 16.25c-.69 0-1.25-.56-1.25-1.25s.56-1.25 1.25-1.25 1.25.56 1.25 1.25-.56 1.25-1.25 1.25zm9.25-2.5h1.5c.276 0 .5.224.5.5v1.5c0 .276-.224.5-.5.5h-1.5c-.276 0-.5-.224-.5-.5v-1.5c0-.276.224-.5.5-.5z" transform="translate(-2 -2)"/>
    </g>
</svg>
