<svg xmlns="http://www.w3.org/2000/svg" width="24" height="24" viewBox="0 0 24 24">
    <g fill="none">
        <g fill="#012B7A">
            <path d="M22 2v4H2V2h20m0-2H2C.895 0 0 .895 0 2v4c0 1.105.895 2 2 2h20c1.105 0 2-.895 2-2V2c0-1.105-.895-2-2-2zM6 12v10H2V12h4m0-2H2c-1.105 0-2 .895-2 2v10c0 1.105.895 2 2 2h4c1.105 0 2-.895 2-2V12c0-1.105-.895-2-2-2zM22 12v10H12V12h10m0-2H12c-1.105 0-2 .895-2 2v10c0 1.105.895 2 2 2h10c1.105 0 2-.895 2-2V12c0-1.105-.895-2-2-2z" transform="translate(-4 -4) translate(4 4)"/>
        </g>
        <path d="M0 0H32V32H0z" transform="translate(-4 -4)"/>
    </g>
</svg>
