<svg xmlns="http://www.w3.org/2000/svg" width="24" height="24" viewBox="0 0 24 24">
    <g fill="none" fill-rule="evenodd">
        <path d="M0 0H32V32H0z" transform="translate(-4 -4)"/>
        <g fill="#012B7A" fill-rule="nonzero">
            <path d="M8 0c1.473 0 2.667 1.194 2.667 2.667V8c0 1.473-1.194 2.667-2.667 2.667H2.667C1.194 10.667 0 9.473 0 8V2.667C0 1.194 1.194 0 2.667 0H8zm0 2H2.667c-.328 0-.6.236-.656.547L2 2.667V8c0 .327.236.6.547.656l.12.01H8c.327 0 .6-.235.656-.546l.01-.12V2.667c0-.328-.235-.6-.546-.656L8 2zM8 13.333c1.473 0 2.667 1.194 2.667 2.667v5.333C10.667 22.806 9.473 24 8 24H2.667C1.194 24 0 22.806 0 21.333V16c0-1.473 1.194-2.667 2.667-2.667H8zm0 2H2.667c-.328 0-.6.236-.656.547L2 16v5.333c0 .328.236.6.547.656l.12.011H8c.327 0 .6-.236.656-.547l.01-.12V16c0-.327-.235-.6-.546-.656l-.12-.01zM21.333 0C22.806 0 24 1.194 24 2.667V8c0 1.473-1.194 2.667-2.667 2.667H16c-1.473 0-2.667-1.194-2.667-2.667V2.667C13.333 1.194 14.527 0 16 0h5.333zm0 2H16c-.327 0-.6.236-.656.547l-.01.12V8c0 .327.235.6.546.656l.12.01h5.333c.328 0 .6-.235.656-.546L22 8V2.667c0-.328-.236-.6-.547-.656L21.333 2zM18.667 13.333c.506 0 .924.377.99.865l.01.135V23c0 .552-.448 1-1 1-.507 0-.925-.376-.991-.864l-.01-.136v-8.667c0-.552.448-1 1-1z" transform="translate(-4 -4) translate(4 4)"/>
            <path d="M23 17.667c.552 0 1 .448 1 1 0 .506-.376.925-.864.99l-.136.01h-8.667c-.552 0-1-.448-1-1 0-.506.377-.925.865-.991l.135-.01H23z" transform="translate(-4 -4) translate(4 4)"/>
        </g>
    </g>
</svg>
