<svg xmlns="http://www.w3.org/2000/svg" width="24" height="24" viewBox="0 0 24 24">
    <defs>
        <filter id="prefix__a" width="100%" height="100%" x="0%" y="0%" filterUnits="objectBoundingBox">
            <feOffset in="SourceAlpha" result="shadowOffsetOuter1"/>
            <feColorMatrix in="shadowOffsetOuter1" result="shadowMatrixOuter1" values="0 0 0 0 0.00392156863 0 0 0 0 0.168627451 0 0 0 0 0.478431373 0 0 0 1 0"/>
            <feMerge>
                <feMergeNode in="shadowMatrixOuter1"/>
                <feMergeNode in="SourceGraphic"/>
            </feMerge>
        </filter>
    </defs>
    <g fill="none" fill-rule="evenodd" filter="url(#prefix__a)" transform="translate(-4 -4)">
        <path d="M0 0H32V32H0z"/>
        <path fill="#023D98" fill-rule="nonzero" d="M20 23h-8.14c-.099-.35-.244-.687-.43-1L22 11.43c.602.37 1.294.567 2 .57 2.08.007 3.819-1.582 3.998-3.655.18-2.072-1.26-3.937-3.31-4.288-2.05-.35-4.028.929-4.548 2.943h-8.28c-.504-1.95-2.379-3.222-4.377-2.968C5.485 4.286 3.987 5.986 3.987 8c0 2.014 1.498 3.714 3.496 3.968S11.356 10.95 11.86 9h8.28c.099.35.244.687.43 1L10 20.57c-.602-.37-1.294-.567-2-.57-2.08-.007-3.819 1.582-3.998 3.655-.18 2.072 1.26 3.937 3.31 4.288 2.05.35 4.028-.929 4.548-2.943H20v2c0 .552.448 1 1 1h6c.552 0 1-.448 1-1v-6c0-.552-.448-1-1-1h-6c-.552 0-1 .448-1 1v2zM8 10c-1.105 0-2-.895-2-2s.895-2 2-2 2 .895 2 2c0 .53-.21 1.04-.586 1.414C9.04 9.79 8.53 10 8 10zm16-4c1.105 0 2 .895 2 2s-.895 2-2 2-2-.895-2-2 .895-2 2-2zM8 26c-1.105 0-2-.895-2-2s.895-2 2-2 2 .895 2 2-.895 2-2 2zm14.5-4h3c.276 0 .5.224.5.5v3c0 .276-.224.5-.5.5h-3c-.276 0-.5-.224-.5-.5v-3c0-.276.224-.5.5-.5z"/>
    </g>
</svg>
