<?xml version="1.0" encoding="UTF-8"?>
<svg width="24px" height="24px" viewBox="0 0 24 24" version="1.1" xmlns="http://www.w3.org/2000/svg" xmlns:xlink="http://www.w3.org/1999/xlink">
    <!-- Generator: sketchtool 63.1 (101010) - https://sketch.com -->
    <title>B0BBF340-A331-4A55-943D-B06006543842</title>
    <desc>Created with sketchtool.</desc>
    <g id="Template-Changes-New" stroke="none" stroke-width="1" fill="none" fill-rule="evenodd">
        <g id="Icons" transform="translate(-14.000000, -200.000000)">
            <g id="Components/Icons/Kebab-Reorder" transform="translate(14.000000, 200.000000)">
                <g id="Group-10">
                    <rect id="Rectangle" x="0" y="0" width="24" height="24"></rect>
                    <path d="M8,8 C9.1,8 10,7.1 10,6 C10,4.9 9.1,4 8,4 C6.9,4 6,4.9 6,6 C6,7.1 6.9,8 8,8 L8,8 Z M8,10 C6.9,10 6,10.9 6,12 C6,13.1 6.9,14 8,14 C9.1,14 10,13.1 10,12 C10,10.9 9.1,10 8,10 L8,10 Z M8,16 C6.9,16 6,16.9 6,18 C6,19.1 6.9,20 8,20 C9.1,20 10,19.1 10,18 C10,16.9 9.1,16 8,16 L8,16 Z" id="Shape" fill="#BFC4C9"></path>
                    <path d="M16,8 C17.1,8 18,7.1 18,6 C18,4.9 17.1,4 16,4 C14.9,4 14,4.9 14,6 C14,7.1 14.9,8 16,8 L16,8 Z M16,10 C14.9,10 14,10.9 14,12 C14,13.1 14.9,14 16,14 C17.1,14 18,13.1 18,12 C18,10.9 17.1,10 16,10 L16,10 Z M16,16 C14.9,16 14,16.9 14,18 C14,19.1 14.9,20 16,20 C17.1,20 18,19.1 18,18 C18,16.9 17.1,16 16,16 L16,16 Z" id="Shape-Copy" fill="#BFC4C9"></path>
                </g>
            </g>
        </g>
    </g>
</svg>