<svg xmlns="http://www.w3.org/2000/svg" width="22" height="22" viewBox="0 0 22 22">
    <g fill="none">
        <g fill="#006BD4">
            <path d="M1.813 14.467L.547 19.933c-.089.405.01.828.269 1.152.259.323.65.512 1.064.515.095.01.191.01.287 0l5.5-1.267 10.56-10.52-5.894-5.88-10.52 10.534zM21.547 4.547L17.613.613c-.538-.535-1.408-.535-1.946 0L13.48 2.8l5.887 5.887L21.553 6.5c.259-.26.403-.612.402-.978-.001-.366-.148-.717-.408-.975z" transform="translate(-1 -1) translate(1 1)"/>
        </g>
        <path d="M0 0H24V24H0z" transform="translate(-1 -1)"/>
    </g>
</svg>
