<svg xmlns="http://www.w3.org/2000/svg" width="24" height="24" viewBox="0 0 24 24">
    <g fill="none" fill-rule="evenodd">
        <path d="M0 0H24V24H0z"/>
        <path fill="#006BD4" fill-rule="nonzero" d="M17.56 21c-.16 0-.318-.037-.46-.11L12 18.22l-5.1 2.67c-.338.178-.747.147-1.056-.078-.308-.225-.46-.606-.394-.982l1-5.63-4.12-4c-.262-.261-.358-.646-.25-1 .118-.363.432-.626.81-.68l5.7-.83 2.51-5.13c.167-.345.517-.564.9-.564s.733.219.9.564l2.54 5.12 5.7.83c.378.054.692.317.81.68.108.354.012.739-.25 1l-4.12 4 1 5.63c.073.383-.083.773-.4 1-.181.127-.4.19-.62.18z"/>
    </g>
</svg>
