<svg xmlns="http://www.w3.org/2000/svg" width="27" height="29" viewBox="0 0 27 29">
    <g fill="none" fill-rule="evenodd">
        <path d="M0 0H32V32H0z" transform="translate(-2 -1)"/>
        <g transform="translate(-2 -1) translate(2.667 2.667)">
            <path stroke="#FFF" stroke-linecap="round" stroke-linejoin="round" stroke-width="1.5" d="M19.298 6.75H17.88C16.71 2.22 12.266-.658 7.655.128 3.043.913-.198 5.1.198 9.762c.396 4.66 4.297 8.241 8.975 8.238h10.125c3.106 0 5.625-2.518 5.625-5.625S22.404 6.75 19.298 6.75h0z"/>
            <circle cx="16.667" cy="17.619" r="9.048" fill="#0068D7"/>
            <path fill="#FFF" fill-rule="nonzero" stroke="#FFF" stroke-width=".5" d="M15.047 25.322c0 .217.176.392.393.392h2.453c.217 0 .393-.175.393-.392v-.761c.516-.139 1.01-.343 1.473-.61l.537.537c.073.073.173.115.278.115.103 0 .203-.042.277-.115l1.734-1.736c.153-.154.153-.402 0-.555l-.536-.537c.267-.463.471-.957.61-1.473h.758c.217 0 .393-.175.393-.392V17.34c0-.217-.176-.393-.393-.393h-.758c-.139-.516-.343-1.009-.61-1.472l.533-.534c.074-.074.115-.174.115-.278 0-.104-.041-.204-.115-.277l-1.735-1.735c-.154-.153-.402-.153-.555 0l-.533.533c-.464-.267-.957-.471-1.473-.61v-.754c0-.217-.176-.392-.393-.392H15.44c-.217 0-.393.175-.393.392v.754c-.516.139-1.009.343-1.472.61l-.533-.533c-.154-.153-.402-.153-.555 0l-1.736 1.735c-.074.073-.115.173-.115.277 0 .104.041.204.115.278l.534.534c-.267.463-.472.956-.61 1.472h-.757c-.217 0-.393.176-.393.393l-.001 2.454c0 .104.041.204.115.277.073.074.173.115.277.115h.758c.139.516.344 1.01.61 1.473l-.536.537c-.153.153-.153.401 0 .555l1.734 1.736c.074.073.174.115.278.115h0c.104 0 .204-.042.277-.115l.537-.538c.464.268.957.472 1.473.611v.76zm-1.319-2.197c-.155-.1-.36-.079-.49.052l-.478.478-1.18-1.18.478-.478c.13-.13.152-.335.052-.49-.356-.551-.606-1.155-.743-1.795-.04-.18-.2-.31-.384-.31h-.674v-1.669h.674c.185 0 .345-.129.384-.31.137-.64.387-1.243.743-1.794.1-.155.079-.36-.052-.49l-.475-.475 1.181-1.18.474.475c.13.13.335.152.49.052.55-.356 1.154-.606 1.794-.744.18-.038.31-.198.31-.383v-.67h1.669v.67c0 .185.13.345.31.383.64.138 1.243.388 1.794.744.155.1.36.079.49-.052l.474-.474 1.18 1.18-.474.474c-.13.13-.152.335-.052.49.356.551.606 1.155.744 1.794.038.181.198.31.383.31h.675v1.67h-.675c-.185 0-.344.129-.383.31-.138.64-.388 1.243-.744 1.793-.1.156-.078.36.052.49l.478.478-1.18 1.18-.478-.477c-.13-.13-.335-.152-.49-.052-.55.356-1.154.606-1.794.743-.18.04-.31.2-.31.384v.677h-1.669v-.677c0-.185-.13-.345-.31-.384-.64-.137-1.243-.387-1.794-.743h0z"/>
            <path fill="#FFF" fill-rule="nonzero" stroke="#FFF" stroke-width=".9" d="M19.567 18.571c0-1.575-1.282-2.857-2.858-2.857-1.575 0-2.857 1.282-2.857 2.857 0 1.576 1.282 2.858 2.857 2.858 1.576 0 2.858-1.282 2.858-2.858zm-5.023 0c0-1.194.971-2.165 2.165-2.165 1.195 0 2.166.971 2.166 2.165s-.971 2.166-2.166 2.166c-1.194 0-2.165-.971-2.165-2.166z"/>
        </g>
    </g>
</svg>
