<svg xmlns="http://www.w3.org/2000/svg" width="28" height="27" viewBox="0 0 28 27">
    <g fill="none" fill-rule="evenodd">
        <path d="M0 0H32V32H0z" transform="translate(-2 -2)"/>
        <path fill="#FEFDFD" fill-rule="nonzero" stroke="#FFF" stroke-width=".5" d="M15.428 2.667c3.887 0 7.038 3.15 7.038 7.034 0 2.48-1.283 4.66-3.223 5.912 5.788 1.32 10.09 6.1 10.09 11.817 0 .411-.333.744-.744.744-.41 0-.744-.333-.744-.744 0-5.89-5.288-10.694-11.845-10.694S4.155 21.54 4.155 27.43c0 .411-.334.744-.744.744-.411 0-.744-.333-.744-.744 0-5.45 3.908-10.047 9.287-11.61C9.825 14.61 8.39 12.324 8.39 9.7c0-3.885 3.151-7.034 7.039-7.034zm0 1.487c-3.066 0-5.551 2.483-5.551 5.547 0 3.064 2.485 5.548 5.55 5.548 3.066 0 5.552-2.484 5.552-5.548s-2.486-5.547-5.551-5.547z" transform="translate(-2 -2)"/>
    </g>
</svg>
