<svg xmlns="http://www.w3.org/2000/svg" width="27" height="27" viewBox="0 0 27 27">
    <g fill="none" fill-rule="evenodd">
        <path d="M0 0H32V32H0z" transform="translate(-2 -2)"/>
        <g fill="#FFF" fill-rule="nonzero">
            <path d="M25.322 10.688l-1.36-.44c-.276-1.146-.727-2.232-1.345-3.24l.621-1.242c.146-.292.089-.644-.142-.874L20.955 2.75c-.23-.23-.583-.288-.874-.142l-1.242.62c-1.008-.617-2.095-1.068-3.24-1.344l-.441-1.36C15.057.212 14.766 0 14.438 0h-3.03c-.328 0-.619.212-.72.524l-.44 1.36c-1.146.276-2.232.727-3.24 1.345l-1.242-.621c-.292-.146-.644-.088-.874.142L2.75 4.892c-.23.23-.288.582-.142.874l.62 1.241c-.617 1.008-1.068 2.095-1.344 3.24l-1.36.441c-.312.101-.524.392-.524.72v3.03c0 .328.212.619.524.72l1.36.44c.276 1.146.727 2.232 1.345 3.241l-.621 1.241c-.146.292-.088.644.142.874l2.142 2.142c.23.23.582.288.874.142l1.241-.62c1.009.617 2.095 1.068 3.24 1.344l.441 1.36c.101.313.392.524.72.524h3.03c.328 0 .619-.211.72-.524l.44-1.36c1.146-.276 2.233-.727 3.241-1.345l1.242.621c.29.146.643.089.874-.142l2.141-2.142c.23-.23.288-.582.142-.873l-.62-1.242c.617-1.008 1.068-2.095 1.344-3.24l1.36-.441c.313-.101.524-.392.524-.72v-3.03c0-.328-.211-.619-.524-.72zm-.99 3.199l-1.25.404c-.26.085-.455.303-.508.572-.252 1.257-.741 2.438-1.456 3.51-.15.227-.169.516-.047.759l.568 1.138-1.37 1.37-1.137-.57c-.243-.12-.532-.103-.758.048-1.073.715-2.253 1.204-3.51 1.455-.27.054-.488.249-.573.51l-.404 1.249h-1.928l-.404-1.25c-.085-.26-.303-.455-.572-.508-1.257-.252-2.438-.741-3.51-1.456-.226-.15-.516-.169-.759-.047l-1.137.568-1.37-1.37.568-1.137c.122-.243.104-.532-.047-.759-.714-1.072-1.204-2.253-1.455-3.51-.054-.269-.249-.487-.51-.572l-1.249-.404v-1.928l1.25-.404c.26-.085.455-.303.509-.572.251-1.257.74-2.438 1.455-3.51.15-.226.169-.516.047-.759l-.568-1.137 1.37-1.37 1.137.568c.243.122.533.104.759-.047 1.072-.714 2.253-1.204 3.51-1.455.269-.054.487-.249.572-.51l.404-1.249h1.928l.404 1.25c.085.26.303.455.572.509 1.257.251 2.438.74 3.51 1.455.227.15.516.169.759.047l1.138-.568 1.37 1.37-.57 1.137c-.12.243-.103.533.048.759.715 1.072 1.204 2.253 1.456 3.51.053.269.248.487.509.572l1.249.404v1.928z" transform="translate(-2 -2) translate(2.667 2.667)"/>
            <path d="M12.564 5.026c-4.552 0-8.256 3.703-8.256 8.256 0 4.553 3.704 8.256 8.256 8.256 4.553 0 8.257-3.703 8.257-8.256 0-4.553-3.704-8.256-8.257-8.256zm0 15.011c-3.725 0-6.755-3.03-6.755-6.755s3.03-6.755 6.755-6.755 6.755 3.03 6.755 6.755-3.03 6.755-6.755 6.755z" transform="translate(-2 -2) translate(2.667 2.667)"/>
            <path d="M12.564 11.2c.462 0 .838.345.838.769 0 .425.375.77.837.77.463 0 .838-.345.838-.77 0-1-.696-1.853-1.666-2.173v-1.13c0-.424-.375-.769-.838-.769-.463 0-.838.345-.838.77V9.79c-.98.315-1.684 1.172-1.684 2.178 0 1.272 1.128 2.308 2.513 2.308.462 0 .838.345.838.769 0 .424-.376.77-.838.77-.462 0-.838-.346-.838-.77 0-.425-.375-.77-.837-.77-.463 0-.838.345-.838.77 0 1.006.705 1.863 1.684 2.178v.673c0 .425.375.77.838.77.463 0 .838-.345.838-.77v-.679c.97-.32 1.666-1.172 1.666-2.172 0-1.273-1.127-2.308-2.513-2.308-.462 0-.838-.345-.838-.769 0-.424.376-.77.838-.77z" transform="translate(-2 -2) translate(2.667 2.667)"/>
        </g>
    </g>
</svg>
