<svg xmlns="http://www.w3.org/2000/svg" width="28" height="24" viewBox="0 0 28 24">
    <g fill="none" fill-rule="evenodd">
        <path d="M0 0H32V32H0z" transform="translate(-2 -4)"/>
        <path fill="#FFF" fill-rule="nonzero" d="M29.333 23.344V8.44c0-2.458-1.96-4.44-4.392-4.44h-3.137c-2.431 0-4.392 1.982-4.392 4.44v15.776s0 1.427-1.412 1.507c-1.412 0-1.412-1.507-1.412-1.507V8.44c0-2.458-1.96-4.44-4.392-4.44H7.06C4.627 4 2.667 5.982 2.667 8.44v14.904c0 2.458 1.96 4.44 4.392 4.44h.157V7.568s0-1.507 1.49-1.507 1.49 1.507 1.49 1.507v15.776c0 2.458 1.96 4.44 4.392 4.44h2.98c2.432 0 4.393-1.982 4.393-4.44V7.568s0-1.507 1.49-1.507 1.49 1.507 1.49 1.507v20.216h.157c2.275 0 4.235-1.982 4.235-4.44" transform="translate(-2 -4)"/>
    </g>
</svg>
