<svg xmlns="http://www.w3.org/2000/svg" width="28" height="21" viewBox="0 0 28 21">
    <g fill="none" fill-rule="evenodd">
        <path d="M0 0H32V32H0z" transform="translate(-2 -6)"/>
        <g>
            <g fill-rule="nonzero">
                <path fill="#FFF" d="M10.343 3.232c.223 0 .404-.181.404-.404 0-.223-.18-.404-.404-.404-.223 0-.404.18-.404.404 0 .223.181.404.404.404z" transform="translate(-2 -6) translate(2.667 6.333)"/>
                <path fill="#FFF" stroke="#FFF" stroke-width=".3" d="M19.07 0H1.617C.726 0 0 .725 0 1.616c0 .702.456 1.314 1.099 1.53.068.054.154.086.247.086l.054.003c.174.024.312.156.344.328l1.374 7.563c.105.576.607.995 1.193.995h12.065c.586 0 1.088-.419 1.193-.996l1.374-7.561c.032-.173.17-.305.344-.329l.054-.003c.094 0 .18-.032.248-.086.643-.218 1.098-.829 1.098-1.53C20.687.725 19.962 0 19.07 0zm0 2.424h-7.11c-.224 0-.404.18-.404.404 0 .223.18.4.404.4h6.238c-.021.06-.038.123-.05.187l-1.374 7.566c-.035.192-.203.332-.398.332H4.311c-.196 0-.363-.14-.398-.332L2.539 3.42c-.012-.065-.029-.127-.05-.187h6.238c.223 0 .404-.181.404-.404 0-.223-.18-.404-.404-.404h-7.11c-.45 0-.809-.366-.809-.808 0-.446.363-.808.808-.808h17.455c.445 0 .808.362.808.808 0 .448-.367.808-.808.808z" transform="translate(-2 -6) translate(2.667 6.333)"/>
                <path fill="#000" d="M14.384 10.1c.668 0 1.212-.543 1.212-1.212V5.656c0-.67-.542-1.212-1.212-1.212-.669 0-1.212.544-1.212 1.212v3.232c0 .669.543 1.213 1.212 1.213zm-.404-4.444c0-.223.181-.404.404-.404.223 0 .404.181.404.404v3.232c0 .223-.181.404-.404.404-.223 0-.404-.18-.404-.404V5.656z" transform="translate(-2 -6) translate(2.667 6.333)"/>
            </g>
            <path fill="#0068D7" d="M18.182 20.202c4.686 0 8.485-3.799 8.485-8.485s-3.8-8.485-8.485-8.485c-4.686 0-8.485 3.8-8.485 8.485 0 4.686 3.799 8.485 8.485 8.485z" transform="translate(-2 -6) translate(2.667 6.333)"/>
            <path fill="#FFF" fill-rule="nonzero" stroke="#FFF" stroke-width=".5" d="M16.808 17.445c0 .184.149.333.333.333h2.082c.184 0 .333-.15.333-.333v-.646c.438-.118.856-.291 1.25-.518l.455.456c.063.062.147.098.236.098.088 0 .173-.036.235-.098l1.472-1.473c.13-.13.13-.34 0-.47l-.456-.456c.227-.393.4-.812.518-1.25h.643c.184 0 .333-.149.333-.333v-2.082c0-.184-.149-.333-.333-.333h-.643c-.118-.438-.29-.856-.518-1.25l.453-.452c.063-.063.098-.148.098-.236s-.035-.173-.098-.236l-1.473-1.471c-.13-.13-.34-.13-.47 0l-.453.452c-.393-.226-.811-.4-1.25-.518v-.64c0-.183-.148-.332-.332-.332H17.14c-.184 0-.333.149-.333.333v.64c-.438.117-.856.29-1.25.517l-.452-.452c-.13-.13-.34-.13-.47 0l-1.473 1.472c-.063.062-.098.147-.098.235s.035.173.097.236l.453.452c-.226.394-.4.812-.518 1.25h-.642c-.184 0-.333.15-.333.333v2.082c0 .088.034.173.097.236.062.062.147.097.235.097h.643c.118.438.292.857.518 1.25l-.455.455c-.13.13-.13.341 0 .471l1.472 1.473c.062.062.147.098.235.098h0c.088 0 .173-.036.235-.098l.456-.456c.394.227.812.4 1.25.518v.646zm-1.12-1.864c-.131-.085-.304-.067-.416.044l-.405.406-1-1.002.404-.405c.111-.111.13-.285.044-.416-.301-.468-.514-.98-.63-1.523-.033-.153-.169-.263-.326-.263h-.572l.001-1.416h.571c.157 0 .293-.11.326-.263.116-.543.329-1.055.63-1.522.086-.132.067-.305-.044-.416l-.402-.403 1.001-1 .402.401c.112.111.285.13.417.045.467-.302.979-.515 1.522-.631.153-.033.263-.169.263-.326v-.568h1.416v.568c0 .157.11.293.263.326.543.116 1.055.329 1.522.63.132.086.305.067.416-.044l.402-.402 1.002 1.001-.403.403c-.11.11-.13.284-.044.416.302.467.514.98.63 1.522.034.154.17.263.326.263h.572v1.416h-.572c-.157 0-.292.11-.325.263-.117.543-.33 1.055-.63 1.522-.086.132-.068.306.043.417l.405.405-1 1.001-.406-.405c-.111-.111-.284-.13-.416-.044-.467.302-.98.514-1.522.63-.154.034-.263.17-.263.326v.575h-1.416v-.575c0-.157-.11-.292-.263-.325-.543-.117-1.055-.33-1.522-.631h0z" transform="translate(-2 -6) translate(2.667 6.333)"/>
            <path fill="#FFF" fill-rule="nonzero" stroke="#FFF" stroke-width=".9" d="M20.642 11.717c0-1.337-1.087-2.424-2.424-2.424s-2.424 1.087-2.424 2.424 1.087 2.424 2.424 2.424 2.424-1.087 2.424-2.424zm-4.261 0c0-1.013.824-1.837 1.837-1.837s1.838.824 1.838 1.837-.825 1.838-1.838 1.838c-1.013 0-1.837-.825-1.837-1.838z" transform="translate(-2 -6) translate(2.667 6.333)"/>
        </g>
    </g>
</svg>
