<svg xmlns="http://www.w3.org/2000/svg" width="18" height="18" viewBox="0 0 18 18">
    <g fill="none" fill-rule="evenodd">
        <path d="M0 0H24V24H0z" transform="translate(-3 -3)"/>
        <g fill="#006BD4" fill-rule="nonzero">
            <path d="M6 0c1.105 0 2 .895 2 2v4c0 1.105-.895 2-2 2H2C.895 8 0 7.105 0 6V2C0 .895.895 0 2 0h4zm0 1.5H2c-.245 0-.45.177-.492.41L1.5 2v4c0 .245.177.45.41.492L2 6.5h4c.245 0 .45-.177.492-.41L6.5 6V2c0-.245-.177-.45-.41-.492L6 1.5zM6 10c1.105 0 2 .895 2 2v4c0 1.105-.895 2-2 2H2c-1.105 0-2-.895-2-2v-4c0-1.105.895-2 2-2h4zm0 1.5H2c-.245 0-.45.177-.492.41L1.5 12v4c0 .245.177.45.41.492L2 16.5h4c.245 0 .45-.177.492-.41L6.5 16v-4c0-.245-.177-.45-.41-.492L6 11.5zM16 0c1.105 0 2 .895 2 2v4c0 1.105-.895 2-2 2h-4c-1.105 0-2-.895-2-2V2c0-1.105.895-2 2-2h4zm0 1.5h-4c-.245 0-.45.177-.492.41L11.5 2v4c0 .245.177.45.41.492L12 6.5h4c.245 0 .45-.177.492-.41L16.5 6V2c0-.245-.177-.45-.41-.492L16 1.5zM14 10c.38 0 .693.282.743.648l.007.102v6.5c0 .414-.336.75-.75.75-.38 0-.693-.282-.743-.648l-.007-.102v-6.5c0-.414.336-.75.75-.75z" transform="translate(-3 -3) translate(3 3)"/>
            <path d="M17.25 13.25c.414 0 .75.336.75.75 0 .38-.282.694-.648.743l-.102.007h-6.5c-.414 0-.75-.336-.75-.75 0-.38.282-.693.648-.743l.102-.007h6.5z" transform="translate(-3 -3) translate(3 3)"/>
        </g>
    </g>
</svg>
