<svg xmlns="http://www.w3.org/2000/svg" width="38" height="33" viewBox="0 0 38 33">
  <path fill="#FFF" d="M52.1911239,64.6217886 L52.1911239,44.1099187 C52.1911239,40.7276423 49.4564824,38 46.065527,38 L41.6901007,38 C38.2991453,38 35.5645038,40.7276423 35.5645038,44.1099187 L35.5645038,65.8219512 C35.5645038,65.8219512 35.5645038,67.7858537 33.5955619,67.8949593 C31.6266201,67.8949593 31.6266201,65.8219512 31.6266201,65.8219512 L31.6266201,44.1099187 C31.6266201,40.7276423 28.8919786,38 25.5010232,38 L21.1255969,38 C17.7346415,38 15,40.7276423 15,44.1099187 L15,64.6217886 C15,68.004065 17.7346415,70.7317073 21.1255969,70.7317073 L21.3443682,70.7317073 L21.3443682,42.9097561 C21.3443682,42.9097561 21.3443682,40.836748 23.4226957,40.836748 C25.5010232,40.836748 25.5010232,42.9097561 25.5010232,42.9097561 L25.5010232,64.6217886 C25.5010232,68.004065 28.2356647,70.7317073 31.6266201,70.7317073 L35.7832751,70.7317073 C39.1742305,70.7317073 41.908872,68.004065 41.908872,64.6217886 L41.908872,42.9097561 C41.908872,42.9097561 41.908872,40.836748 43.9871995,40.836748 C46.065527,40.836748 46.065527,42.9097561 46.065527,42.9097561 L46.065527,70.7317073 L46.2842983,70.7317073 C49.4564824,70.7317073 52.1911239,68.004065 52.1911239,64.6217886" transform="translate(-15 -38)"/>
</svg>
