<svg xmlns="http://www.w3.org/2000/svg" width="56" height="56" viewBox="0 0 56 56">
    <defs>
        <filter id="prefix__a" width="284.4%" height="284.4%" x="-92.2%" y="-92.2%" filterUnits="objectBoundingBox">
            <feOffset in="SourceAlpha" result="shadowOffsetOuter1"/>
            <feGaussianBlur in="shadowOffsetOuter1" result="shadowBlurOuter1" stdDeviation="7.5"/>
            <feColorMatrix in="shadowBlurOuter1" result="shadowMatrixOuter1" values="0 0 0 0 0.0235294118 0 0 0 0 0.117647059 0 0 0 0 0.396078431 0 0 0 1 0"/>
            <feMerge>
                <feMergeNode in="shadowMatrixOuter1"/>
                <feMergeNode in="SourceGraphic"/>
            </feMerge>
        </filter>
    </defs>
    <g fill="none" filter="url(#prefix__a)" transform="translate(12 12)">
        <rect width="32" height="32" rx="4"/>
        <path fill="#FFF" stroke="#FFF" stroke-width=".5" d="M17.967 24.394h-3.509c-.242 0-.438-.196-.438-.438v-2.158c-.103-.04-.207-.083-.312-.13l-1.527 1.528c-.083.082-.194.128-.31.128-.117 0-.228-.046-.31-.128l-2.483-2.483c-.171-.171-.171-.449 0-.62l1.527-1.528c-.047-.104-.087-.208-.129-.31H8.318c-.242 0-.439-.197-.439-.44v-3.508c0-.243.197-.439.439-.439h2.158c.04-.103.082-.206.13-.311l-1.528-1.528c-.171-.171-.171-.449 0-.62l2.483-2.483c.174-.164.446-.164.62 0l1.527 1.528c.105-.047.209-.088.312-.13V8.167c0-.242.196-.438.438-.438h3.51c.241 0 .438.196.438.438v2.159c.103.04.207.082.312.129l1.527-1.528c.082-.082.194-.128.31-.128.116 0 .228.046.31.128l2.482 2.483c.172.171.172.449 0 .62l-1.527 1.528c.047.105.088.208.13.311h2.157c.243 0 .44.196.44.439v3.508c0 .243-.197.44-.44.44H21.95c-.04.102-.082.206-.129.31l1.527 1.528c.172.171.172.449 0 .62l-2.482 2.483c-.174.164-.446.164-.62 0l-1.527-1.527c-.105.046-.21.087-.312.129v2.158c0 .242-.197.438-.439.438zm-3.07-.877h2.632v-2.03c0-.192.124-.361.307-.418.267-.087.528-.194.778-.321.17-.084.373-.051.507.082l1.434 1.435 1.862-1.862-1.435-1.435c-.134-.134-.167-.338-.082-.506.127-.251.234-.512.32-.78.058-.182.227-.306.418-.306h2.03v-2.63h-2.03c-.191 0-.36-.125-.418-.308-.086-.267-.193-.528-.32-.779-.085-.168-.052-.372.082-.506l1.435-1.434-1.862-1.862-1.436 1.435c-.133.134-.337.167-.506.082-.25-.127-.511-.234-.779-.32-.182-.058-.307-.227-.307-.418V8.605h-2.63v2.03c0 .192-.125.361-.307.419-.268.086-.528.193-.779.32-.169.085-.373.052-.506-.082L11.87 9.857l-1.863 1.862 1.436 1.436c.133.133.166.337.082.506-.127.25-.234.511-.32.779-.058.182-.227.306-.419.307h-2.03v2.631h2.03c.192 0 .36.125.418.307.087.268.194.528.32.78.085.168.052.372-.081.505l-1.436 1.433 1.863 1.862 1.435-1.435c.134-.133.337-.166.506-.082.251.127.512.234.78.32.182.058.306.227.306.419l-.001 2.03z"/>
        <path fill="#FFF" stroke="#FFF" stroke-width=".5" d="M12.88 16.061c0-1.84 1.492-3.333 3.333-3.333 1.84 0 3.333 1.492 3.333 3.333-.002 1.84-1.493 3.331-3.333 3.333-1.841 0-3.334-1.492-3.334-3.333zm.833 0c0 1.38 1.119 2.5 2.5 2.5 1.38 0 2.5-1.12 2.5-2.5-.002-1.38-1.12-2.499-2.5-2.5-1.381 0-2.5 1.12-2.5 2.5z"/>
        <path fill="#FFF" stroke="#FFF" stroke-width=".5" d="M25.97 6.897h1.604c.243 0 .44-.2.44-.448S27.817 6 27.574 6h-2.638c-.243 0-.44.2-.44.449V9.14c0 .248.197.448.44.448s.44-.2.44-.448V7.565c1.993 2.287 3.089 5.245 3.078 8.306 0 4.719-2.59 9.04-6.707 11.188-4.118 2.148-9.068 1.76-12.816-1.003-.127-.1-.297-.122-.444-.057-.148.066-.248.208-.263.37-.015.164.06.322.192.414 4.016 2.961 9.32 3.376 13.73 1.075 4.412-2.301 7.188-6.931 7.187-11.987.012-3.314-1.187-6.514-3.363-8.974h0zM23.596 5.222C19.58 2.257 14.273 1.84 9.859 4.14c-4.415 2.3-7.193 6.932-7.192 11.989-.012 3.314 1.187 6.513 3.364 8.974H4.426c-.243 0-.44.2-.44.448s.197.449.44.449h2.639c.243 0 .44-.2.44-.449V22.86c0-.248-.197-.449-.44-.449s-.44.201-.44.45v1.575c-1.993-2.287-3.09-5.245-3.079-8.306 0-4.72 2.593-9.042 6.713-11.189 4.12-2.147 9.072-1.758 12.82 1.009.197.145.472.1.615-.1.143-.201.099-.482-.098-.627h0z"/>
    </g>
</svg>
