<svg xmlns="http://www.w3.org/2000/svg" width="32" height="32" viewBox="0 0 32 32">
    <g fill="none" fill-rule="evenodd">
        <g fill="#99A1A9" fill-rule="nonzero">
            <path d="M17 28c-4.418 0-8-3.582-8-8s3.582-8 8-8 8 3.582 8 8-3.582 8-8 8zm0-14c-3.314 0-6 2.686-6 6s2.686 6 6 6 6-2.686 6-6-2.686-6-6-6z" transform="translate(3.5 2)"/>
            <path d="M14 22.193V18c0-.552.448-1 1-1s1 .448 1 1v4.193c0 .552-.448 1-1 1s-1-.448-1-1zM18 22.193V18c0-.552.448-1 1-1s1 .448 1 1v4.193c0 .552-.448 1-1 1s-1-.448-1-1z" transform="translate(3.5 2)"/>
            <path d="M24 4c0-1.105-.895-2-2-2h-4V1c0-.552-.448-1-1-1s-1 .448-1 1v1H8V1c0-.552-.448-1-1-1S6 .448 6 1v1H2C.895 2 0 2.895 0 4v20c0 1.105.895 2 2 2h3c.552 0 1-.448 1-1s-.448-1-1-1H2V4h4v1c0 .552.448 1 1 1s1-.448 1-1V4h8v1c0 .552.448 1 1 1s1-.448 1-1V4h4v5c0 .552.448 1 1 1s1-.448 1-1V4z" transform="translate(3.5 2)"/>
        </g>
        <path d="M0 0H32V32H0z"/>
    </g>
</svg>
