<svg xmlns="http://www.w3.org/2000/svg" xmlns:xlink="http://www.w3.org/1999/xlink" width="32" height="32" viewBox="0 0 32 32">
    <defs>
        <path id="prefix__a" d="M17 28c-4.418 0-8-3.582-8-8s3.582-8 8-8 8 3.582 8 8-3.582 8-8 8zm0-14c-3.314 0-6 2.686-6 6s2.686 6 6 6 6-2.686 6-6-2.686-6-6-6z"/>
        <path id="prefix__b" d="M17.885 22.295L16 20.41V17c0-.552.448-1 1-1s1 .448 1 1v2.59l1.295 1.295c.39.39.39 1.02 0 1.41-.39.39-1.02.39-1.41 0z"/>
        <path id="prefix__c" d="M24 4c0-1.105-.895-2-2-2h-4V1c0-.552-.448-1-1-1s-1 .448-1 1v1H8V1c0-.552-.448-1-1-1S6 .448 6 1v1H2C.895 2 0 2.895 0 4v20c0 1.105.895 2 2 2h3c.552 0 1-.448 1-1s-.448-1-1-1H2V4h4v1c0 .552.448 1 1 1s1-.448 1-1V4h8v1c0 .552.448 1 1 1s1-.448 1-1V4h4v5c0 .552.448 1 1 1s1-.448 1-1V4z"/>
    </defs>
    <g fill="none" fill-rule="evenodd">
        <g fill-rule="nonzero" transform="translate(3.5 2)">
            <use fill="#006BD4" xlink:href="#prefix__a"/>
            <use fill="#99A1A9" xlink:href="#prefix__a"/>
            <g fill="#99A1A9">
                <use xlink:href="#prefix__b"/>
                <use xlink:href="#prefix__b"/>
            </g>
            <g>
                <use fill="#006BD4" xlink:href="#prefix__c"/>
                <use fill="#99A1A9" xlink:href="#prefix__c"/>
            </g>
        </g>
        <path d="M0 0H32V32H0z"/>
    </g>
</svg>
