<svg xmlns="http://www.w3.org/2000/svg" width="18" height="18" viewBox="0 0 18 18">
    <g fill="none">
        <g fill="#006BD4">
            <path d="M19.5 4.5v3h-15v-3h15m0-1.5h-15C3.672 3 3 3.672 3 4.5v3C3 8.328 3.672 9 4.5 9h15c.828 0 1.5-.672 1.5-1.5v-3c0-.828-.672-1.5-1.5-1.5zM7.5 12v7.5h-3V12h3m0-1.5h-3c-.828 0-1.5.672-1.5 1.5v7.5c0 .828.672 1.5 1.5 1.5h3c.828 0 1.5-.672 1.5-1.5V12c0-.828-.672-1.5-1.5-1.5zM19.5 12v7.5H12V12h7.5m0-1.5H12c-.828 0-1.5.672-1.5 1.5v7.5c0 .828.672 1.5 1.5 1.5h7.5c.828 0 1.5-.672 1.5-1.5V12c0-.828-.672-1.5-1.5-1.5z" transform="translate(-3 -3)"/>
        </g>
        <path d="M0 0H24V24H0z" transform="translate(-3 -3)"/>
    </g>
</svg>
