<svg xmlns="http://www.w3.org/2000/svg" width="16" height="20" viewBox="0 0 16 20">
    <g fill="none">
        <path fill="#006BD4" d="M7 2h10c1.657 0 3 1.343 3 3v14c0 1.657-1.343 3-3 3H7c-1.657 0-3-1.343-3-3V5c0-1.657 1.343-3 3-3zm0 2c-.552 0-1 .448-1 1v14c0 .552.448 1 1 1h10c.552 0 1-.448 1-1V5c0-.552-.448-1-1-1H7zm2 1h6c.552 0 1 .448 1 1s-.448 1-1 1H9c-.552 0-1-.448-1-1s.448-1 1-1zm0 12h2c.552 0 1 .448 1 1s-.448 1-1 1H9c-.552 0-1-.448-1-1s.448-1 1-1zm0-4h6c.552 0 1 .448 1 1s-.448 1-1 1H9c-.552 0-1-.448-1-1s.448-1 1-1zm0-4h6c.552 0 1 .448 1 1s-.448 1-1 1H9c-.552 0-1-.448-1-1s.448-1 1-1z" transform="translate(-4 -2)"/>
        <path d="M0 0H24V24H0z" transform="translate(-4 -2)"/>
    </g>
</svg>
