<svg xmlns="http://www.w3.org/2000/svg" width="24" height="24" viewBox="0 0 24 24">
    <g fill="none">
        <g fill="#FFF">
            <path d="M26 6v4H6V6h20m0-2H6c-1.105 0-2 .895-2 2v4c0 1.105.895 2 2 2h20c1.105 0 2-.895 2-2V6c0-1.105-.895-2-2-2zM10 16v10H6V16h4m0-2H6c-1.105 0-2 .895-2 2v10c0 1.105.895 2 2 2h4c1.105 0 2-.895 2-2V16c0-1.105-.895-2-2-2zM26 16v10H16V16h10m0-2H16c-1.105 0-2 .895-2 2v10c0 1.105.895 2 2 2h10c1.105 0 2-.895 2-2V16c0-1.105-.895-2-2-2z" transform="translate(-4 -4)"/>
        </g>
        <path d="M0 0H32V32H0z" transform="translate(-4 -4)"/>
    </g>
</svg>
