<svg xmlns="http://www.w3.org/2000/svg" width="18" height="18" viewBox="0 0 18 18">
    <g fill="none" fill-rule="evenodd">
        <path d="M0 0H24V24H0z" transform="translate(-3 -3)"/>
        <path fill="#006BD4" fill-rule="nonzero" d="M15 17.25H8.895c-.074-.263-.183-.515-.322-.75L16.5 8.572c.451.278.97.425 1.5.428 1.56.005 2.864-1.187 2.999-2.741.134-1.555-.945-2.953-2.483-3.216-1.538-.263-3.02.696-3.411 2.207h-6.21c-.378-1.463-1.784-2.416-3.283-2.226C4.114 3.214 2.99 4.489 2.99 6c0 1.51 1.124 2.786 2.622 2.976 1.499.19 2.905-.763 3.283-2.226h6.21c.074.263.183.515.322.75L7.5 15.428c-.451-.278-.97-.425-1.5-.428-1.56-.005-2.864 1.187-2.999 2.741-.134 1.555.945 2.953 2.483 3.216 1.538.263 3.02-.696 3.411-2.207H15V20c0 .552.448 1 1 1h4c.552 0 1-.448 1-1v-4c0-.552-.448-1-1-1h-4c-.552 0-1 .448-1 1v1.25zM6 7.5c-.828 0-1.5-.672-1.5-1.5S5.172 4.5 6 4.5s1.5.672 1.5 1.5c0 .398-.158.78-.44 1.06-.28.282-.662.44-1.06.44zm12-3c.828 0 1.5.672 1.5 1.5s-.672 1.5-1.5 1.5-1.5-.672-1.5-1.5.672-1.5 1.5-1.5zm-12 15c-.828 0-1.5-.672-1.5-1.5s.672-1.5 1.5-1.5 1.5.672 1.5 1.5-.672 1.5-1.5 1.5zm11-3h2c.276 0 .5.224.5.5v2c0 .276-.224.5-.5.5h-2c-.276 0-.5-.224-.5-.5v-2c0-.276.224-.5.5-.5z" transform="translate(-3 -3)"/>
    </g>
</svg>
